<?xml version="1.0" encoding="UTF-8" standalone="no"?>
<!-- Created with Inkscape (http://www.inkscape.org/) -->

<svg
   xmlns:dc="http://purl.org/dc/elements/1.1/"
   xmlns:cc="http://creativecommons.org/ns#"
   xmlns:rdf="http://www.w3.org/1999/02/22-rdf-syntax-ns#"
   xmlns:svg="http://www.w3.org/2000/svg"
   xmlns="http://www.w3.org/2000/svg"
   xmlns:sodipodi="http://sodipodi.sourceforge.net/DTD/sodipodi-0.dtd"
   xmlns:inkscape="http://www.inkscape.org/namespaces/inkscape"
   width="210mm"
   height="297mm"
   viewBox="0 0 210 297"
   version="1.1"
   id="svg8"
   inkscape:version="0.92.3 (2405546, 2018-03-11)"
   sodipodi:docname="Icon.svg">
  <defs
     id="defs2" />
  <sodipodi:namedview
     id="base"
     pagecolor="#ffffff"
     bordercolor="#666666"
     borderopacity="1.0"
     inkscape:pageopacity="0.0"
     inkscape:pageshadow="2"
     inkscape:zoom="0.70710678"
     inkscape:cx="148.89259"
     inkscape:cy="561.09558"
     inkscape:document-units="mm"
     inkscape:current-layer="layer2"
     showgrid="false"
     inkscape:window-width="2560"
     inkscape:window-height="1016"
     inkscape:window-x="0"
     inkscape:window-y="1107"
     inkscape:window-maximized="1">
    <inkscape:grid
       type="xygrid"
       id="grid815" />
  </sodipodi:namedview>
  <metadata
     id="metadata5">
    <rdf:RDF>
      <cc:Work
         rdf:about="">
        <dc:format>image/svg+xml</dc:format>
        <dc:type
           rdf:resource="http://purl.org/dc/dcmitype/StillImage" />
        <dc:title></dc:title>
      </cc:Work>
    </rdf:RDF>
  </metadata>
  <g
     inkscape:label="Layer 1"
     inkscape:groupmode="layer"
     id="layer1"
     style="display:inline" />
  <g
     inkscape:groupmode="layer"
     id="layer3"
     inkscape:label="range" />
  <g
     inkscape:groupmode="layer"
     id="layer2"
     inkscape:label="s"
     style="display:inline">
    <g
       id="g869"
       transform="translate(0.903344,6.1418267)"
       inkscape:export-xdpi="162.19841"
       inkscape:export-ydpi="162.19841">
      <path
         sodipodi:nodetypes="sccscscscs"
         inkscape:connector-curvature="0"
         id="path817"
         d="m 82.020832,123.9625 c 0,-5.29167 5.291667,-5.29167 5.291667,-5.29167 h 26.458331 c 0,0 -5.29167,0 0,0 5.29167,0 5.29167,5.29167 5.29167,5.29167 v 11.90625 c 0,5.29167 -5.29167,5.29167 -5.29167,5.29167 l -26.457297,1.5e-4 c -5.291668,3e-5 -5.2927,-5.29182 -5.2927,-5.29182 z"
         style="display:inline;fill:#ffa11a;fill-opacity:1;fill-rule:evenodd;stroke:#646464;stroke-width:1;stroke-linecap:butt;stroke-linejoin:miter;stroke-miterlimit:4;stroke-dasharray:none;stroke-opacity:1" />
      <path
         sodipodi:nodetypes="cccccccccccccc"
         inkscape:connector-curvature="0"
         id="path842"
         d="m 82.153124,136.33177 2.579688,-4.0349 2.84427,3.57188 4.564062,-3.30729 7.540629,2.84427 8.003637,-3.10885 7.40834,1.98437 3.9026,-1.32292 0.13229,3.10886 -1.05833,3.175 -2.24896,1.71979 -29.897914,0.13229 -2.645833,-1.5875 z"
         style="fill:#ff8140;fill-opacity:1;fill-rule:evenodd;stroke:#ff8c17;stroke-width:0.26499999;stroke-linecap:butt;stroke-linejoin:round;stroke-miterlimit:4;stroke-dasharray:none;stroke-opacity:1" />
      <path
         sodipodi:nodetypes="csccsc"
         inkscape:connector-curvature="0"
         id="path819"
         d="m 105.83333,125.28542 c 0,-2.64584 -1.3229,-3.93531 -4.8862,-3.95032 -4.374217,-0.0184 -5.697127,1.30448 -5.697127,3.95032 0,9.26041 10.583327,0 10.583327,9.26041 0,2.64584 -1.38973,4.11582 -5.28723,4.11525 -4.039997,-5.9e-4 -5.296097,-1.46941 -5.296097,-4.11525"
         style="fill:none;fill-rule:evenodd;stroke:#646464;stroke-width:1;stroke-linecap:round;stroke-linejoin:bevel;stroke-miterlimit:4;stroke-dasharray:none;stroke-opacity:1" />
      <path
         sodipodi:nodetypes="sccscscscs"
         inkscape:connector-curvature="0"
         id="path817-3"
         d="m 82.020831,123.9625 c 0,-5.29167 5.291667,-5.29167 5.291667,-5.29167 h 26.458332 c 0,0 -5.29167,0 0,0 5.29167,0 5.29167,5.29167 5.29167,5.29167 v 11.90625 c 0,5.29167 -5.29167,5.29167 -5.29167,5.29167 l -26.457298,1.5e-4 c -5.291668,3e-5 -5.2927,-5.29182 -5.2927,-5.29182 z"
         style="fill:none;fill-opacity:1;fill-rule:evenodd;stroke:#646464;stroke-width:1;stroke-linecap:butt;stroke-linejoin:miter;stroke-miterlimit:4;stroke-dasharray:none;stroke-opacity:1" />
    </g>
  </g>
</svg>
